<svg width="256" height="256" viewBox="0 0 256 256" fill="none" xmlns="http://www.w3.org/2000/svg">
  <rect x="12" y="12" width="232" height="232" rx="13" fill="#6415FF"/>
  <path d="M128 71.5455C103.994 71.5455 85 90.54 85 114.545V141.455C85 165.46 103.994 184.455 128 184.455C152.006 184.455 171 165.46 171 141.455V114.545C171 90.54 152.006 71.5455 128 71.5455ZM155 141.455C155 156.25 143.795 167.455 129 167.455C114.205 167.455 103 156.25 103 141.455V114.545C103 99.75 114.205 88.5455 129 88.5455C143.795 88.5455 155 99.75 155 114.545V141.455Z" fill="white"/>
</svg>
